<svg width="85" height="120" viewBox="0 0 85 120" fill="none" xmlns="http://www.w3.org/2000/svg">
<g clip-path="url(#clip0_2_345)">
<path d="M42.4483 119.697L7.85656 110.083L0.147949 23.5234H84.8523L77.1355 110.07L42.4483 119.697Z" fill="#264DE4"/>
<path d="M70.529 104.558L77.1235 30.6006H42.5V112.338L70.529 104.558Z" fill="#2965F1"/>
<path d="M17.8198 62.7046L18.7702 73.3207H42.5002V62.7046H17.8198Z" fill="#EBEBEB"/>
<path d="M15.9102 41.2173L16.8741 51.8336H42.5002V41.2173H15.9102Z" fill="#EBEBEB"/>
<path d="M42.5003 90.276L42.4538 90.2884L30.6439 87.0958L29.889 78.6289H19.2441L20.7298 95.2979L42.4515 101.335L42.5003 101.321V90.276Z" fill="#EBEBEB"/>
<path d="M20.0825 0H32.9259V5.37701H25.4534V10.754H32.9259V16.131H20.0825V0Z" fill="#F4F8F5"/>
<path d="M35.4946 0H48.338V4.67566H40.8655V5.61079H48.338V16.3648H35.4946V11.4554H42.9672V10.5202H35.4946V0Z" fill="#F4F8F5"/>
<path d="M50.9067 0H63.7501V4.67566H56.2776V5.61079H63.7501V16.3648H50.9067V11.4554H58.3793V10.5202H50.9067V0Z" fill="#F4F8F5"/>
<path d="M67.1124 62.7047L69.0268 41.2173H42.4634V51.8336H57.4056L56.4407 62.7047H42.4634V73.3208H55.5212L54.2903 87.0892L42.4634 90.285V101.33L64.2024 95.298L64.3619 93.5045L66.8537 65.5555L67.1124 62.7047Z" fill="white"/>
</g>
<defs>
<clipPath id="clip0_2_345">
<rect width="85" height="120" fill="white"/>
</clipPath>
</defs>
</svg>
