<svg width="85" height="85" viewBox="0 0 85 85" fill="none" xmlns="http://www.w3.org/2000/svg">
<g clip-path="url(#clip0_2_331)">
<path d="M83.3973 38.7127L46.285 1.6032C44.1493 -0.534399 40.6827 -0.534399 38.5441 1.6032L30.8378 9.30955L40.6137 19.0854C42.8855 18.3179 45.4904 18.8327 47.3016 20.6438C49.1211 22.4662 49.6322 25.0934 48.846 27.3728L58.2675 36.7943C60.5468 36.009 63.1769 36.5173 64.9974 38.3406C67.5416 40.8839 67.5416 45.0061 64.9974 47.5513C62.4522 50.0964 58.33 50.0964 55.7839 47.5513C53.8701 45.6356 53.3973 42.8247 54.3663 40.467L45.5799 31.6806L45.579 54.8025C46.1992 55.1103 46.7849 55.5197 47.3016 56.0345C49.8458 58.5778 49.8458 62.7 47.3016 65.2471C44.7564 67.7913 40.6323 67.7913 38.0909 65.2471C35.5467 62.7 35.5467 58.5778 38.0909 56.0345C38.7195 55.4068 39.4469 54.9321 40.2229 54.6132V31.2759C39.4469 30.9588 38.7204 30.4869 38.0909 29.8545C36.1631 27.9296 35.6996 25.1009 36.6873 22.7339L27.0513 13.096L1.60439 38.5411C-0.534144 40.6805 -0.534144 44.1471 1.60439 46.2847L38.7167 83.3952C40.8533 85.5328 44.319 85.5328 46.4585 83.3952L83.3973 46.4573C85.5349 44.3188 85.5349 40.8503 83.3973 38.7127Z" fill="#DE4C36"/>
</g>
<defs>
<clipPath id="clip0_2_331">
<rect width="85" height="85" fill="white"/>
</clipPath>
</defs>
</svg>
