<svg width="85" height="118" viewBox="0 0 85 118" fill="none" xmlns="http://www.w3.org/2000/svg">
<g clip-path="url(#clip0_2_304)">
<path d="M84.8523 23.1311L77.1355 108.235L42.4483 117.702L7.85656 108.248L0.147949 23.1311H84.8523Z" fill="#E44D26"/>
<path d="M42.5 110.466L70.529 102.816L77.1235 30.0908H42.5V110.466Z" fill="#F16529"/>
<path d="M27.4991 50.9694H42.5002V40.53H15.9102L16.164 43.3307L18.7703 72.0985H42.5002V61.6594H28.4682L27.4991 50.9694Z" fill="#EBEBEB"/>
<path d="M29.889 77.3184H19.2441L20.7298 93.7095L42.4515 99.6459L42.5003 99.6325V88.7713L42.4538 88.7835L30.6439 85.6442L29.889 77.3184Z" fill="#EBEBEB"/>
<path d="M8.02881 0H13.4177V5.24141H18.3472V0H23.7363V15.8723H18.3474V10.5573H13.4179V15.8723H8.02904L8.02881 0Z" fill="#F4F8F5"/>
<path d="M30.8227 5.26348H26.0786V0H40.9583V5.26348H36.2121V15.8723H30.823L30.8227 5.26348Z" fill="#F4F8F5"/>
<path d="M43.3198 0H48.9389L52.3954 5.57704L55.8485 0H61.4697V15.8723H56.103V8.00511L52.3954 13.6486H52.3027L48.5926 8.00511V15.8723H43.3198V0Z" fill="#F4F8F5"/>
<path d="M64.1519 0H69.5423V10.6258H77.1207V15.8723H64.1519V0Z" fill="#F4F8F5"/>
<path d="M42.4634 72.0986H55.5212L54.2903 85.6375L42.4634 88.78V99.6408L64.2024 93.7095L64.3619 91.9458L66.8537 64.4627L67.1124 61.6594H42.4634V72.0986Z" fill="white"/>
<path d="M42.4634 50.9439V50.9694H68.0773L68.2901 48.623L68.7732 43.3307L69.0268 40.53H42.4634V50.9439Z" fill="white"/>
</g>
<defs>
<clipPath id="clip0_2_304">
<rect width="85" height="118" fill="white"/>
</clipPath>
</defs>
</svg>
