<svg width="69" height="92" viewBox="0 0 69 92" fill="none" xmlns="http://www.w3.org/2000/svg">
<g clip-path="url(#clip0_2_294)">
<path d="M22.2508 71.1196C22.2508 71.1196 18.6934 73.1605 24.7825 73.8511C32.1592 74.6813 35.9293 74.5622 44.0585 73.0444C44.0585 73.0444 46.1958 74.3664 49.1806 75.5115C30.9571 83.2164 7.93717 75.0652 22.2508 71.1196Z" fill="#5382A1"/>
<path d="M20.0239 61.0654C20.0239 61.0654 16.034 63.979 22.1275 64.6008C30.0076 65.4028 36.2306 65.4684 46.9989 63.4229C46.9989 63.4229 48.4883 64.9125 50.8303 65.7271C28.7969 72.083 4.25578 66.2283 20.0239 61.0654Z" fill="#5382A1"/>
<path d="M38.7968 44.0095C43.287 49.1095 37.617 53.6988 37.617 53.6988C37.617 53.6988 49.0185 47.8924 43.7823 40.6213C38.8919 33.8406 35.1415 30.4716 55.4443 18.8555C55.4443 18.8555 23.5756 26.7075 38.7968 44.0095Z" fill="#E76F00"/>
<path d="M62.8987 78.5565C62.8987 78.5565 65.5313 80.6964 59.9995 82.3518C49.4806 85.4954 16.2189 86.4446 6.97888 82.4771C3.65735 81.0516 9.88616 79.0733 11.8455 78.6582C13.8889 78.2211 15.0566 78.3026 15.0566 78.3026C11.3628 75.7355 -8.81911 83.3432 4.80526 85.5219C41.9609 91.4662 72.5364 82.8451 62.8987 78.5565Z" fill="#5382A1"/>
<path d="M23.9615 50.6478C23.9615 50.6478 7.04245 54.6121 17.97 56.0517C22.584 56.6611 31.7818 56.5233 40.3494 55.8151C47.3512 55.2324 54.382 53.9936 54.382 53.9936C54.382 53.9936 51.913 55.0366 50.1268 56.2398C32.9458 60.6975 -0.244699 58.6238 9.31042 54.0641C17.3912 50.2106 23.9615 50.6478 23.9615 50.6478Z" fill="#5382A1"/>
<path d="M54.312 67.3836C71.7772 58.4304 63.702 49.8264 58.0656 50.9856C56.6841 51.2693 56.0681 51.5151 56.0681 51.5151C56.0681 51.5151 56.5809 50.7225 57.5605 50.3794C68.7111 46.5121 77.2867 61.7856 53.9609 67.8349C53.9609 67.8349 54.2312 67.5968 54.312 67.3836Z" fill="#5382A1"/>
<path d="M43.7824 0.0986328C43.7824 0.0986328 53.455 9.64394 34.6084 24.3219C19.4954 36.0962 31.1622 42.8096 34.6022 50.4799C25.7805 42.6279 19.3065 35.7157 23.6497 29.2826C30.0246 19.8392 47.6851 15.2608 43.7824 0.0986328Z" fill="#E76F00"/>
<path d="M25.6775 91.6448C42.442 92.7035 68.1858 91.0574 68.7955 83.2319C68.7955 83.2319 67.6235 86.1985 54.9406 88.5545C40.6317 91.2109 22.9838 90.9008 12.5166 89.1983C12.5166 89.1983 14.6594 90.9478 25.6775 91.6448Z" fill="#5382A1"/>
</g>
<defs>
<clipPath id="clip0_2_294">
<rect width="69" height="92" fill="white"/>
</clipPath>
</defs>
</svg>
