<svg width="69" height="68" viewBox="0 0 69 68" fill="none" xmlns="http://www.w3.org/2000/svg">
<g clip-path="url(#clip0_2_289)">
<path d="M0 0H69V68H0V0Z" fill="#F7DF1E"/>
<path d="M18.1427 56.8257L23.4231 53.6764C24.4417 55.4564 25.3684 56.9624 27.5912 56.9624C29.7219 56.9624 31.0652 56.141 31.0652 52.9461V31.2185H37.5494V53.0365C37.5494 59.6551 33.6127 62.6678 27.8692 62.6678C22.682 62.6678 19.671 60.0202 18.1426 56.8251" fill="black"/>
<path d="M41.0713 56.1411L46.351 53.1285C47.7409 55.3653 49.5472 57.0084 52.7429 57.0084C55.4296 57.0084 57.1429 55.6846 57.1429 53.8587C57.1429 51.6677 55.383 50.8917 52.4186 49.614L50.798 48.9289C46.1197 46.9665 43.0163 44.5016 43.0163 39.2979C43.0163 34.5051 46.7216 30.8533 52.5115 30.8533C56.6337 30.8533 59.598 32.2684 61.7284 35.9658L56.6797 39.1608C55.5681 37.1982 54.3642 36.4224 52.5116 36.4224C50.6126 36.4224 49.4082 37.6091 49.4082 39.1608C49.4082 41.078 50.6126 41.8542 53.3913 43.041L55.0122 43.7257C60.524 46.0538 63.6274 48.4271 63.6274 53.7674C63.6274 59.5192 59.0421 62.6684 52.882 62.6684C46.8608 62.6684 42.97 59.8385 41.0713 56.1411Z" fill="black"/>
</g>
<defs>
<clipPath id="clip0_2_289">
<rect width="69" height="68" fill="white"/>
</clipPath>
</defs>
</svg>
