<svg width="169" height="115" viewBox="0 0 169 115" fill="none" xmlns="http://www.w3.org/2000/svg">
<g clip-path="url(#clip0_2_326)">
<path d="M50.274 75.886L55.4102 92.5221C56.564 96.2993 57.0453 98.9361 56.8528 100.439C59.6619 92.9287 61.6244 84.7442 62.7409 75.886H68.9166C66.2613 90.3073 62.7588 100.787 58.4113 107.325C55.024 112.363 51.3132 114.881 47.2724 114.881C46.1952 114.881 44.8669 114.557 43.2906 113.911V110.435C44.0607 110.548 44.9643 110.608 46.0034 110.608C47.8885 110.608 49.4078 110.086 50.5636 109.046C51.9477 107.777 52.6404 106.352 52.6404 104.772C52.6404 103.693 52.1001 101.479 51.0244 98.1296L43.8682 75.886H50.274ZM10.9665 65.6606L20.374 94.3141H20.4318L29.897 65.6606H37.6301C39.3234 79.8706 40.3233 92.8725 40.6305 104.657H34.1107C33.8813 93.6406 33.2457 83.2814 32.2067 73.5775H32.1493L22.2212 104.657H17.2564L7.3885 73.5775H7.33037C6.59817 82.8968 6.13752 93.256 5.94542 104.657H0C0.384205 90.7916 1.34572 77.7937 2.88455 65.6606H10.9665Z" fill="#00758F"/>
<path d="M116.352 65.0818C126.471 65.0818 131.531 71.5359 131.531 84.4371C131.531 91.4479 130.009 96.7434 126.969 100.321C126.421 100.975 125.815 101.54 125.178 102.063L132.339 105.598L132.332 105.597L129.789 109.98L120.463 104.548C118.918 105.005 117.217 105.234 115.363 105.234C110.395 105.234 106.683 103.788 104.229 100.901C101.536 97.7065 100.19 92.6778 100.19 85.8231C100.19 78.852 101.709 73.5764 104.75 69.9943C107.52 66.7177 111.388 65.0818 116.352 65.0818ZM85.364 65.1388C88.9808 65.1388 92.2696 66.1049 95.2316 68.0303L93.727 71.3769C91.1925 70.3014 88.6931 69.7615 86.229 69.7615C84.2295 69.7615 82.6887 70.242 81.6145 71.2086C80.5343 72.1669 79.8665 73.4002 79.8665 74.9032C79.8665 77.2127 81.5149 79.216 84.5584 80.9085C85.3772 81.353 86.4436 81.9456 87.5394 82.5598L87.7665 82.6872C87.8044 82.7084 87.8423 82.7297 87.8802 82.751L88.1077 82.8788C88.1456 82.9001 88.1835 82.9214 88.2214 82.9427L88.4484 83.0704C90.7526 84.3671 92.9204 85.6048 92.9204 85.6048C95.9638 87.7614 97.4805 90.0607 97.4805 93.8478C97.4805 97.155 96.2666 99.87 93.8467 101.994C91.4248 104.109 88.1711 105.17 84.0967 105.17C80.2859 105.17 76.5927 103.949 73.0151 101.528L74.6887 98.1786C77.7674 99.719 80.5534 100.488 83.0548 100.488C85.4012 100.488 87.2378 99.9656 88.5664 98.9329C89.892 97.8927 90.6866 96.442 90.6866 94.602C90.6866 92.2866 89.0733 90.3073 86.1133 88.6469C85.3447 88.2248 84.3603 87.6734 83.3423 87.099L83.1156 86.971C82.6992 86.7358 82.2795 86.4981 81.8687 86.265L81.6456 86.1384C79.6473 85.0036 77.9193 84.0121 77.9193 84.0121C74.9603 81.8515 73.4768 79.5333 73.4768 75.7137C73.4768 72.5547 74.5831 70.0014 76.7928 68.0587C79.0075 66.1121 81.8649 65.1388 85.364 65.1388ZM143.423 65.6605V99.86H155.715V104.657H137.189V65.6605H143.423ZM162.545 99.875V100.685H161.193V104.653H160.16V100.685H158.756V99.875H162.545ZM165.04 99.875L166.338 103.132L167.53 99.875H168.994V104.653H168.02V101.017L166.664 104.653H165.962L164.603 101.017H164.55V104.653H163.629V99.875H165.04ZM115.715 69.8776C109.752 69.8776 106.769 74.7906 106.769 84.6101C106.769 90.2347 107.559 94.3139 109.137 96.8559C110.599 99.2088 112.888 100.383 116.005 100.383C121.968 100.383 124.951 95.4316 124.951 85.5334C124.951 79.9874 124.161 75.9436 122.585 73.4004C121.121 71.0527 118.833 69.8776 115.715 69.8776Z" fill="#F29111"/>
<path d="M100.086 2.41639C102.064 -2.43603 108.981 1.23852 111.665 2.93385C112.323 3.35768 113.077 4.25367 113.832 4.58488C115.008 4.63119 116.184 4.7228 117.363 4.77213C119.573 5.29059 121.644 5.71443 123.386 6.70505C131.483 11.4648 136.753 16.3153 141.604 24.3268C142.64 26.0241 143.158 27.8604 144.005 29.6967C145.179 32.434 146.5 35.3071 147.864 37.8957C148.474 39.1227 148.947 40.4874 149.795 41.5236C150.126 41.9975 151.066 42.137 151.628 42.4202C153.182 43.2231 155.065 43.8327 156.527 44.7753C159.256 46.4742 161.895 48.4987 164.294 50.5711C165.188 51.3714 165.798 52.504 166.65 53.3502V53.7773C165.893 54.0089 165.14 54.2461 164.386 54.436C162.738 54.8588 161.279 54.7631 159.681 55.186C158.693 55.4718 157.467 55.8493 156.431 55.9449C156.477 55.9913 156.527 56.0413 156.527 56.0413C157.136 57.7794 160.433 59.1931 161.941 60.2325C163.772 61.5519 165.469 63.1524 166.835 64.9897C167.306 65.4588 167.778 65.8856 168.248 66.3531C168.576 66.8269 168.668 67.4396 169 67.8625V68.0051C168.632 67.8756 168.368 67.6287 168.117 67.3702L167.968 67.2145C167.818 67.0592 167.667 66.9073 167.496 66.7817C166.457 66.0731 165.425 65.2256 164.386 64.5669C162.599 63.4356 160.528 62.7788 158.693 61.6431C157.656 60.9836 156.667 60.2325 155.679 59.4782C154.783 58.8168 153.796 57.5466 153.233 56.6043C152.901 56.0838 152.855 55.4718 152.476 55.0955C152.544 54.4663 153.122 54.2792 153.704 54.1256L153.838 54.0906C154.039 54.0384 154.236 53.9864 154.407 53.9177C156.854 52.8803 159.772 52.504 163.54 52.5983C163.398 51.6538 161.043 50.4772 160.292 49.9117C158.783 48.8263 157.186 47.6937 155.586 46.7059C154.738 46.1884 153.277 45.8108 152.337 45.3881C151.066 44.8694 148.241 44.3511 147.537 43.3633C146.34 41.806 145.481 39.9486 144.646 38.0721L144.419 37.5601C144.343 37.3894 144.268 37.2188 144.192 37.0484C143.205 34.789 141.98 32.4333 140.991 30.1198C140.474 28.9913 140.237 28.0006 139.671 26.9184C136.236 20.276 131.152 14.7149 124.988 10.8037C122.962 9.53123 120.703 8.35336 118.21 7.55301C116.797 7.12717 115.101 7.36274 113.595 7.03555H112.604C111.759 6.79797 111.053 5.90298 110.393 5.43083C108.935 4.44323 107.476 3.7798 105.733 3.07509C105.123 2.7922 103.379 2.13381 102.77 2.65227C102.393 2.7469 102.202 2.88886 102.109 3.26638C101.734 3.83015 102.064 4.67882 102.297 5.19829C103.004 6.70435 103.992 7.59933 104.888 8.87183C105.686 10.0004 106.676 11.2729 107.242 12.5001C108.462 15.1377 109.03 18.0602 110.16 20.6978C110.58 21.6895 111.243 22.818 111.853 23.713C112.37 24.4227 113.311 24.9362 113.595 25.8352C114.162 26.7775 112.746 29.8872 112.418 30.8748C111.192 34.739 111.43 40.1102 112.842 43.4599C112.867 43.5184 112.892 43.5773 112.917 43.6366L112.992 43.8153C113.508 45.042 114.06 46.363 115.431 46.7062C115.525 46.6126 115.431 46.6618 115.618 46.6126C115.95 44.0199 116.043 41.5232 116.938 39.4947C117.455 38.2265 118.488 37.3299 119.196 36.2945C119.668 36.5764 119.668 37.427 119.95 37.9898C120.562 39.4495 121.22 41.05 121.975 42.5141C123.525 45.5293 125.269 48.4523 127.246 51.0898C127.907 52.0316 128.847 53.0686 129.694 53.9173C130.071 54.2457 130.493 54.4356 130.777 54.8584H130.869V55.0007C129.457 54.4809 128.562 53.0226 127.436 52.1712C125.315 50.5707 122.776 48.1672 121.314 45.8608C120.703 44.537 120.042 43.268 119.383 41.9506V41.8554C119.102 42.2318 119.196 42.6054 119.056 43.1748C118.444 45.5292 118.915 48.2151 116.797 49.0618C114.396 50.0536 112.604 47.4613 111.853 46.2835C109.451 42.3734 108.794 35.7773 110.487 30.4527C110.863 29.2738 110.915 27.8604 111.572 26.9191C111.43 26.0684 110.773 25.8359 110.393 25.3144C109.734 24.4234 109.17 23.3855 108.654 22.3959C107.663 20.463 106.958 18.1535 106.206 16.0807C105.875 15.234 105.78 14.3844 105.45 13.583C104.888 12.3598 103.851 11.1326 103.052 10.0504C101.968 8.495 98.8143 5.48087 100.086 2.41639ZM115.524 11.6476C115.65 11.7735 115.802 11.8836 115.959 11.9918L116.148 12.1217C116.401 12.2961 116.645 12.4801 116.796 12.7309C117.033 13.0621 117.077 13.3893 117.362 13.7215C117.362 14.8541 117.033 15.6071 116.369 16.0762C116.369 16.0762 116.324 16.1256 116.278 16.1719C115.901 15.4169 115.572 14.6659 115.192 13.9118C114.726 13.2534 114.066 12.7309 113.686 11.9789H113.594V11.8843C114.162 11.7443 114.726 11.6476 115.524 11.6476Z" fill="#00758F"/>
</g>
<defs>
<clipPath id="clip0_2_326">
<rect width="169" height="115" fill="white"/>
</clipPath>
</defs>
</svg>
