<svg width="85" height="75" viewBox="0 0 85 75" fill="none" xmlns="http://www.w3.org/2000/svg">
<g clip-path="url(#clip0_2_316)">
<path d="M69.8871 24.2841C69.0053 23.9834 68.0916 23.6989 67.1508 23.4298C67.3055 22.8046 67.4474 22.1875 67.5735 21.5809C69.6448 11.62 68.2906 3.59548 63.6661 0.953452C59.2318 -1.5799 51.9799 1.06153 44.6559 7.37624C43.9516 7.98346 43.2453 8.62636 42.5393 9.30013C42.069 8.85434 41.5993 8.42355 41.1309 8.01149C33.4551 1.25938 25.7612 -1.58605 21.1413 1.06362C16.7113 3.60432 15.3993 11.1482 17.2638 20.5882C17.4439 21.5 17.6543 22.4311 17.8923 23.3778C16.8034 23.6841 15.7522 24.0105 14.7463 24.3578C5.74724 27.4662 0 32.3377 0 37.3908C0 42.6096 6.16966 47.8442 15.5429 51.0182C16.2826 51.2687 17.0502 51.5055 17.8412 51.7304C17.5844 52.7543 17.3611 53.7577 17.1736 54.7363C15.3959 64.0125 16.7842 71.3781 21.2024 73.9028C25.766 76.51 33.4251 73.8301 40.8831 67.3715C41.4725 66.8609 42.0641 66.3195 42.6567 65.752C43.4249 66.4848 44.1918 67.1784 44.9547 67.8289C52.1786 73.9876 59.3134 76.4745 63.7275 73.9428C68.2866 71.328 69.7683 63.4156 67.8447 53.7888C67.6978 53.0536 67.5268 52.3025 67.3348 51.538C67.8727 51.3805 68.4007 51.2179 68.9156 51.0488C78.66 47.8502 85 42.6793 85 37.3908C85 32.3194 79.0674 27.4151 69.8871 24.2841ZM67.7736 47.6341C67.3088 47.7865 66.8319 47.9339 66.3459 48.0767C65.2702 44.7028 63.8183 41.115 62.0416 37.4083C63.7371 33.7899 65.1328 30.2481 66.1784 26.896C67.0479 27.1453 67.8919 27.4082 68.7051 27.6856C76.5708 30.3683 81.3688 34.3346 81.3688 37.3908C81.3688 40.6462 76.1871 44.8721 67.7736 47.6341ZM64.2825 54.4875C65.1331 58.7443 65.2546 62.593 64.6912 65.6017C64.1849 68.3051 63.1668 70.1076 61.908 70.8295C59.2293 72.3656 53.5008 70.3689 47.3228 65.1019C46.6146 64.4981 45.9012 63.8535 45.1856 63.1711C47.5806 60.576 49.9743 57.5591 52.3105 54.2085C56.4196 53.8473 60.3018 53.2567 63.8224 52.4504C63.9958 53.1434 64.1498 53.823 64.2825 54.4875ZM28.9784 70.564C26.3613 71.4797 24.2768 71.506 23.0168 70.7862C20.3356 69.2541 19.221 63.3402 20.7414 55.4072C20.9156 54.4987 21.1228 53.5655 21.3617 52.6116C24.8437 53.3744 28.6975 53.9233 32.8164 54.2541C35.1684 57.5327 37.6312 60.5464 40.1131 63.1851C39.5709 63.7037 39.0307 64.1975 38.4936 64.6627C35.1957 67.5186 31.8909 69.5449 28.9784 70.564ZM16.7173 47.6141C12.5726 46.2107 9.1498 44.3866 6.80361 42.3962C4.69541 40.6075 3.63102 38.8317 3.63102 37.3908C3.63102 34.3244 8.24548 30.4132 15.9416 27.7549C16.8754 27.4323 17.853 27.1283 18.8674 26.8428C19.9311 30.2705 21.3263 33.8543 23.0101 37.4783C21.3045 41.1561 19.8894 44.797 18.8154 48.265C18.0922 48.059 17.3915 47.8423 16.7173 47.6141ZM20.8273 19.8973C19.2299 11.8093 20.2908 5.70808 22.9605 4.17706C25.8042 2.54607 32.0923 4.87152 38.7198 10.7016C39.1434 11.0743 39.5687 11.4643 39.9952 11.8678C37.5256 14.495 35.0853 17.486 32.7542 20.7453C28.7566 21.1123 24.93 21.702 21.4117 22.4917C21.1905 21.6101 20.9945 20.7441 20.8273 19.8973ZM57.4925 28.8668C56.6514 27.4275 55.788 26.0223 54.9077 24.6554C57.6198 24.995 60.2182 25.4459 62.6583 25.9977C61.9257 28.3237 61.0126 30.7557 59.9378 33.2489C59.1668 31.7987 58.3513 30.3365 57.4925 28.8668ZM42.5405 14.4388C44.2154 16.2365 45.8927 18.2435 47.5425 20.4212C45.88 20.3434 44.197 20.3029 42.5 20.3029C40.8191 20.3029 39.1484 20.3425 37.4962 20.4189C39.1477 18.2615 40.8395 16.2571 42.5405 14.4388ZM27.4928 28.8917C26.6527 30.335 25.8523 31.7893 25.0934 33.2462C24.0359 30.7617 23.1313 28.3186 22.3924 25.9596C24.8176 25.4219 27.4037 24.9823 30.0985 24.6491C29.2058 26.0286 28.3352 27.4444 27.4928 28.8917ZM30.1761 50.3891C27.3919 50.0814 24.7669 49.6644 22.3423 49.1415C23.093 46.7404 24.0176 44.2451 25.0975 41.7071C25.8583 43.163 26.6619 44.6179 27.5072 46.0644C28.3682 47.538 29.2604 48.9815 30.1761 50.3891ZM42.641 60.5964C40.92 58.7568 39.2034 56.7218 37.5268 54.5329C39.1543 54.5962 40.8136 54.6286 42.5 54.6286C44.2325 54.6286 45.9452 54.5899 47.631 54.5155C45.9758 56.7439 44.3045 58.782 42.641 60.5964ZM59.9724 41.5778C61.1085 44.1432 62.0663 46.6254 62.8267 48.9857C60.3622 49.5427 57.7013 49.9913 54.8977 50.3247C55.7801 48.9393 56.6511 47.51 57.507 46.0396C58.3729 44.5521 59.1951 43.0623 59.9724 41.5778ZM54.3617 44.2424C53.033 46.5249 51.6689 48.7037 50.284 50.7604C47.7617 50.9391 45.1559 51.0311 42.5 51.0311C39.8548 51.0311 37.2819 50.9497 34.8042 50.7904C33.3635 48.7067 31.9698 46.5214 30.6495 44.2621C29.3328 42.0089 28.1212 39.7366 27.023 37.4771C28.1209 35.2124 29.3296 32.9376 30.6388 30.6884L30.6385 30.6889C31.9511 28.4337 33.3327 26.2591 34.76 24.1885C37.2879 23.9991 39.8801 23.9004 42.4998 23.9004C45.1314 23.9004 47.7271 23.9999 50.2542 24.1909C51.6598 26.2463 53.0319 28.414 54.3497 30.6694C55.6825 32.9502 56.9068 35.2098 58.014 37.426C56.9102 39.6803 55.6886 41.9627 54.3617 44.2424ZM61.8523 4.07004C64.6987 5.69624 65.8056 12.2547 64.0173 20.8548C63.9032 21.4036 63.7747 21.9625 63.6352 22.529C60.1088 21.7229 56.2794 21.123 52.2701 20.7503C49.9345 17.4552 47.5142 14.4596 45.0848 11.8662C45.7379 11.2436 46.3902 10.6501 47.0397 10.0899C53.315 4.67951 59.1801 2.54337 61.8523 4.07004ZM42.5 29.8711C46.6919 29.8711 50.0902 33.2377 50.0902 37.3908C50.0902 41.5437 46.6919 44.9105 42.5 44.9105C38.3081 44.9105 34.9098 41.5437 34.9098 37.3908C34.9098 33.2377 38.3081 29.8711 42.5 29.8711Z" fill="#00D8FF"/>
</g>
<defs>
<clipPath id="clip0_2_316">
<rect width="85" height="75" fill="white"/>
</clipPath>
</defs>
</svg>
