<svg width="85" height="82" viewBox="0 0 85 82" fill="none" xmlns="http://www.w3.org/2000/svg">
<g clip-path="url(#clip0_2_341)">
<path d="M70.8887 0H14.1113C6.31786 0 0 6.24115 0 13.94V67.9288C0 75.6277 6.31786 81.8688 14.1113 81.8688H70.8887C78.6821 81.8688 85 75.6277 85 67.9288V13.94C85 6.24115 78.6821 0 70.8887 0Z" fill="#330000"/>
<path d="M41.1897 49.131H28.0179L25.3379 57.355C25.2626 57.6643 24.9754 57.8771 24.6537 57.862H17.9822C17.6018 57.862 17.4687 57.6554 17.5831 57.2423L28.9872 24.7971C29.1013 24.4592 29.2154 24.0742 29.3294 23.6423C29.4786 22.8908 29.5549 22.1269 29.5575 21.3611C29.5418 21.2525 29.5788 21.1429 29.6573 21.0654C29.7358 20.9878 29.8467 20.9512 29.9566 20.9667H39.0228C39.2884 20.9667 39.4405 21.0606 39.479 21.2484L52.4229 57.2986C52.5368 57.6745 52.4228 57.8622 52.0806 57.8619H44.6679C44.4045 57.8908 44.1604 57.722 44.0977 57.4677L41.1897 49.131ZM30.0706 42.0336H39.0799L38.9517 41.6148L38.7453 40.9515L38.5983 40.486L38.3636 39.7526L37.8645 38.2086L37.4255 36.8397L36.2858 33.2745C35.9926 32.3572 35.7204 31.4674 35.469 30.6052L35.2604 29.8806L35.0166 29.0233L34.6446 27.6951C34.6212 27.6107 34.5981 27.5272 34.5753 27.4445H34.5183C34.2329 28.7968 33.8855 30.1354 33.4769 31.4563L32.6309 34.1442L32.1655 35.6294L31.6957 37.133C31.6108 37.4046 31.5262 37.6731 31.4418 37.9385L31.1894 38.7253L30.9383 39.4933L30.6887 40.2425L30.4404 40.973C30.3579 41.2134 30.2756 41.4507 30.1935 41.6848L30.0706 42.0336ZM60.1199 26.9376C58.9437 26.9843 57.803 26.5335 56.9838 25.6984C56.168 24.8282 55.737 23.6727 55.7862 22.4876C55.7443 21.3127 56.2109 20.1758 57.0692 19.3614C57.8889 18.5843 58.9794 18.1509 60.1124 18.1489L60.2339 18.1504C61.6025 18.1504 62.6764 18.554 63.4557 19.3614C64.2501 20.2088 64.6706 21.3336 64.6245 22.4876C64.6727 23.6777 64.2303 24.8362 63.3986 25.6984C62.5577 26.5172 61.4189 26.9643 60.2418 26.9416L60.1199 26.9376ZM56.1854 57.2986V30.3736C56.1854 30.0357 56.3369 29.8666 56.6416 29.8666H63.6552C63.9591 29.8666 64.1111 30.0356 64.1114 30.3736V57.2986C64.1114 57.6745 63.9594 57.8622 63.6552 57.8619H56.6986C56.3746 57.8619 56.204 57.6934 56.1868 57.3564L56.1854 57.2986Z" fill="#FF9A00"/>
</g>
<defs>
<clipPath id="clip0_2_341">
<rect width="85" height="82" fill="white"/>
</clipPath>
</defs>
</svg>
