<svg width="85" height="127" viewBox="0 0 85 127" fill="none" xmlns="http://www.w3.org/2000/svg">
<g clip-path="url(#clip0_2_334)">
<path d="M21.25 127C32.98 127 42.5 117.517 42.5 105.833V84.6667H21.25C9.52 84.6667 0 94.1494 0 105.833C0 117.517 9.52 127 21.25 127Z" fill="#0ACF83"/>
<path d="M0 63.4999C0 51.8159 9.52 42.3333 21.25 42.3333H42.5V84.6666H21.25C9.52 84.6666 0 75.1839 0 63.4999Z" fill="#A259FF"/>
<path d="M0 21.1667C0 9.48267 9.52 0 21.25 0H42.5V42.3333H21.25C9.52 42.3333 0 32.8507 0 21.1667Z" fill="#F24E1E"/>
<path d="M42.5 0H63.75C75.48 0 85 9.48267 85 21.1667C85 32.8507 75.48 42.3333 63.75 42.3333H42.5V0Z" fill="#FF7262"/>
<path d="M85 63.4999C85 75.1839 75.48 84.6666 63.75 84.6666C52.02 84.6666 42.5 75.1839 42.5 63.4999C42.5 51.8159 52.02 42.3333 63.75 42.3333C75.48 42.3333 85 51.8159 85 63.4999Z" fill="#1ABCFE"/>
</g>
<defs>
<clipPath id="clip0_2_334">
<rect width="85" height="127" fill="white"/>
</clipPath>
</defs>
</svg>
