<svg width="85" height="96" viewBox="0 0 85 96" fill="none" xmlns="http://www.w3.org/2000/svg">
<g clip-path="url(#clip0_2_323)">
<path d="M42.5 95.8219C41.1801 95.8219 39.9482 95.4697 38.8043 94.8535L27.1014 87.8991C25.3416 86.9307 26.2215 86.5786 26.7495 86.4025C29.1253 85.6103 29.5652 85.4342 32.029 84.0257C32.293 83.8496 32.6449 83.9377 32.9089 84.1137L41.8841 89.4836C42.236 89.6597 42.676 89.6597 42.94 89.4836L78.0487 69.1484C78.4006 68.9724 78.5766 68.6203 78.5766 68.1801V27.5978C78.5766 27.1576 78.4006 26.8055 78.0487 26.6294L42.94 6.38226C42.588 6.20619 42.148 6.20619 41.8841 6.38226L6.77536 26.6294C6.4234 26.8055 6.24741 27.2456 6.24741 27.5978V68.1801C6.24741 68.5322 6.4234 68.9724 6.77536 69.1484L16.3665 74.6944C21.558 77.3353 24.8137 74.2542 24.8137 71.1732V31.119C24.8137 30.5908 25.2536 30.0626 25.8696 30.0626H30.3571C30.8851 30.0626 31.413 30.5028 31.413 31.119V71.1732C31.413 78.1276 27.6294 82.177 21.03 82.177C19.0062 82.177 17.4224 82.177 12.9348 79.9763L3.69565 74.6944C1.40787 73.3739 0 70.9091 0 68.2681V27.6858C0 25.0449 1.40787 22.58 3.69565 21.2595L38.8043 0.924326C41.0041 -0.308109 43.9959 -0.308109 46.1957 0.924326L81.3044 21.2595C83.5921 22.58 85 25.0449 85 27.6858V68.2681C85 70.9091 83.5921 73.3739 81.3044 74.6944L46.1957 95.0296C45.0518 95.5578 43.7319 95.8219 42.5 95.8219ZM53.323 67.916C37.9244 67.916 34.7567 60.8735 34.7567 54.8874C34.7567 54.3592 35.1967 53.831 35.8126 53.831H40.3882C40.9161 53.831 41.3561 54.1832 41.3561 54.7113C42.06 59.377 44.0839 61.6658 53.411 61.6658C60.8023 61.6658 63.97 59.9932 63.97 56.0318C63.97 53.743 63.0901 52.0704 51.5631 50.926C41.972 49.9577 35.9886 47.8449 35.9886 40.1862C35.9886 33.0557 41.972 28.8302 52.0031 28.8302C63.266 28.8302 68.8095 32.7036 69.5135 41.1545C69.5135 41.4186 69.4255 41.6827 69.2495 41.9468C69.0735 42.1229 68.8095 42.299 68.5455 42.299H63.97C63.53 42.299 63.0901 41.9468 63.0021 41.5067C61.9462 36.665 59.2184 35.0804 52.0031 35.0804C43.9079 35.0804 42.94 37.8974 42.94 40.0101C42.94 42.563 44.0839 43.3553 54.9948 44.7638C65.8178 46.1723 70.9213 48.197 70.9213 55.7677C70.8333 63.5145 64.4979 67.916 53.323 67.916Z" fill="#539E43"/>
</g>
<defs>
<clipPath id="clip0_2_323">
<rect width="85" height="96" fill="white"/>
</clipPath>
</defs>
</svg>
