<svg width="85" height="85" viewBox="0 0 85 85" fill="none" xmlns="http://www.w3.org/2000/svg">
<path d="M42.3411 0.352783C20.8372 0.352785 22.1801 9.61408 22.1801 9.61408L22.204 19.2087H42.7247V22.0895H14.0533C14.0533 22.0895 0.292969 20.5396 0.292969 42.0881C0.292967 63.6366 12.3033 62.8725 12.3033 62.8725H19.4712V52.8731C19.4712 52.8731 19.0848 40.9454 31.2897 40.9454H51.6426C51.6426 40.9454 63.0776 41.1289 63.0776 29.9699V11.5187C63.0776 11.5187 64.8137 0.352783 42.3411 0.352783ZM31.026 6.80474C33.0677 6.80474 34.7178 8.44354 34.7178 10.4712C34.7178 12.4988 33.0677 14.1376 31.026 14.1376C28.9844 14.1376 27.3342 12.4988 27.3342 10.4712C27.3342 8.44354 28.9844 6.80474 31.026 6.80474Z" fill="url(#paint0_linear_2_320)"/>
<path d="M42.9516 84.0397C64.4555 84.0397 63.1127 74.7784 63.1127 74.7784L63.0887 65.1838H42.568V62.303H71.2394C71.2394 62.303 84.9998 63.8528 84.9998 42.3043C84.9998 20.7558 72.9894 21.52 72.9894 21.52H65.8216V31.5193C65.8216 31.5193 66.208 43.4471 54.003 43.4471H33.6502C33.6502 43.4471 22.2152 43.2635 22.2152 54.4226V72.8737C22.2152 72.8737 20.479 84.0397 42.9516 84.0397ZM54.2667 77.5877C52.2251 77.5877 50.5749 75.9489 50.5749 73.9213C50.5749 71.8937 52.2251 70.2549 54.2667 70.2549C56.3084 70.2549 57.9585 71.8937 57.9585 73.9213C57.9585 75.9489 56.3084 77.5877 54.2667 77.5877Z" fill="url(#paint1_linear_2_320)"/>
<defs>
<linearGradient id="paint0_linear_2_320" x1="814.344" y1="753.093" x2="4983.45" y2="4909.18" gradientUnits="userSpaceOnUse">
<stop stop-color="#387EB8"/>
<stop offset="1" stop-color="#366994"/>
</linearGradient>
<linearGradient id="paint1_linear_2_320" x1="1223.69" y1="1308.19" x2="5702.3" y2="5571.25" gradientUnits="userSpaceOnUse">
<stop stop-color="#FFE052"/>
<stop offset="1" stop-color="#FFC331"/>
</linearGradient>
</defs>
</svg>
